/* XPM */
static char * img20_xpm[] = {
/* width height ncolors chars_per_pixel */
"44 44 5 1",
/* colors */
" 	c white",
".	c #B6B6B6",
"X	c black",
"o	c #A6A2A6",
"O	c #9A9B97",
/* pixels */
"                                           .",
" ..........................................X",
" ..........................................X",
" ..........................................X",
" o...o...o...o...o...o...o...o...o...o...o.X",
" ..........................................X",
" o.o.o.o.o.o.o.o.o.o.o.o.o.o.o.o.o.o.o.o.o.X",
" .........o.......o.......o.......o.......oX",
" o.o.o.o.o.o.o.o.o.o.o.o.o.o.o.o.o.o.o.o.o.X",
" ...o...o...o...o...o...o...o...o...o...o..X",
" o.o.o.o.o.o.o.o.o.o.o.o.o.o.o.o.o.o.o.o.o.X",
" o.o.o.o.o.o.o.o.o.o.o.o.o.o.o.o.o.o.o.o.o.X",
" .o.o.o.o.o.o.o.o.o.o.o.o.o.o.o.o.o.o.o.o.oX",
" o.o.XXXXXXXXXXXXXXXXXXXXXXXXXXXXXXXXX o.o.X",
" oo.oXXXXXXXXXXXXXXXXXXXXXXXXXXXXXXXX  .oooX",
" o.o.XXo.o.o.o.o.o.o.o.o.o.o           o.o.X",
" ooooXXooooooooooooooooooooo        X  ooooX",
" o.o.XXo.o.oXo.o.X.o.o.o.o.o  .o.o.XX  o.o.X",
" ooooXXooooXXXoooXoooooooooo  XXXXXXX  ooooX",
" ooo.XXo.ooX.Xoo.XXX.ooXXooo  XXXXXXX  o.ooX",
" ooooXXooooXoXoooXooXoXooooo  oXXXoXX  ooooX",
" ooooXXoooXXXXXooXooXoXooooo  oXXXoXX  ooooX",
" ooooXXoooXoooXooXooXoXooooo  ooXooXX  ooooX",
" OoooXXooXXXoXXXoXXXoOoXXOoo  ooXOoXX  ooOoX",
" ooooXXooooooooooooooooooooo  oooooXX  ooooX",
" ooOoXXOoOoOoooOoOoOoooOoOoO  XXXXXXX  OoOoX",
" ooooXXooooooooooooooooooooo XXXXXXXX  ooooX",
" OoOoX                                 OoOoX",
" oooo                                  ooooX",
" OoOoOoOoOoOoOoOoOoOoOoOoOoOoOoOoOoOoOoOoOoX",
" oOoooOoooOoooOoooOoooOoooOoooOoooOoooOoooOX",
" OoOoOoOoOoOoOoOoOoOoOoOoOoOoOoOoOoOoOoOoOoX",
" oOoOoOoOoOoOoOoOoOoOoOoOoOoOoOoOoOoOoOoOoOX",
" OOoOOOoOOOoOOOoOOOoOOOoOOOoOOOoOOOoOOOoOOOX",
" OoOoOoOoOoOoOoOoOoOoOoOoOoOoOoOoOoOoOoOoOoX",
" OOOOOOOOOOOOOOOOOOOOOOOOOOOOOOOOOOOOOOOOOOX",
" OoOoOoOoOoOoOoOoOoOoOoOoOoOoOoOoOoOoOoOoOoX",
" OOOOOOOOOOOOOOOOOOOOOOOOOOOOOOOOOOOOOOOOOOX",
" OOOoOOOoOOOoOOOoOOOoOOOoOOOoOOOoOOOoOOOoOOX",
" OOOOOOOOOOOOOOOOOOOOOOOOOOOOOOOOOOOOOOOOOOX",
" OoOOOoOOOOOOOoOOOOOOOoOOOOOOOoOOOOOOOoOOOOX",
" OOOOOOOOOOOOOOOOOOOOOOOOOOOOOOOOOOOOOOOOOOX",
" OOOOOOOOOOOOOOOOOOOOOOOOOOOOOOOOOOOOOOOOOOX",
".XXXXXXXXXXXXXXXXXXXXXXXXXXXXXXXXXXXXXXXXXXX"};
