/* XPM */
static char * img14_xpm[] = {
/* width height ncolors chars_per_pixel */
"44 44 5 1",
/* colors */
" 	c white",
".	c #B6B6B6",
"X	c black",
"o	c #A6A2A6",
"O	c #9A9B97",
/* pixels */
"                                           .",
" ..........................................X",
" ..........................................X",
" ..........................................X",
" o...o...o...o...o...o...o...o...o...o...o.X",
" ..........................................X",
" o.o.oXXXXXXXXXXXXXXXXXXXXXXXXXXXXXXXX.o.o.X",
" .....XXXXXXXXXXXXXXXXXXXXXXXXXXXXXXX ....oX",
" o.o.oXX.o.o.o.o.o.o.o.o.o.o.o.o.o.o  .o.o.X",
" ...o.XXo.               .            ..o..X",
" o.o.oXX.o              Xo            .o.o.X",
" o.o.oXX.o  .o.o.o.o.o.XXo  .o.o.o.o  .o.o.X",
" .o.o.XXo.  o.o.o.o.o.oXX.  o.o.o.o.  o.o.oX",
" o.o.oXX.o  .o.o.o.o.o.XXo  .o.o.o.o  .o.o.X",
" oo.ooXXoo  XXXXXXXXXXXXXo XXXXXXXXX  o.oooX",
" o.o.oXX.o XXXXXXXXXXXXXXoXXXXXXXXXX  .o.o.X",
" oooooXXoooooooooooooooooooooooooooo  oooooX",
" o.o.oXX.o.o.o.o.o.o.o.o.o.o.o.o.o.o  .o.o.X",
" oooooXXoooooooooooooooooooooooooooo  oooooX",
" ooo.oXX.ooo.ooo.ooo.ooo.ooo.ooo.ooo  oo.ooX",
" oooooXXoooooooooooooooooooooooooooo  oooooX",
" oooooXXoooooooooooooooooooooooooooo  oooooX",
" oooooXXoooooooooooooooooooooooooooo  oooooX",
" OoooOXXoOoooOoooOoooOoooOoooOoooOoo  oooOoX",
" oooooXXoooooooooooooooooooooooooooo  oooooX",
" ooOooXXoOoOoooOoOoOoooOoOoOoooOoOoO  oOoOoX",
" oooooXXoooooooooooooooooooooooooooo  oooooX",
" OoOoOXXoOoOoOoOoOoOoOoOoOoOoOoOoOoO  oOoOoX",
" oooooXXoooooooooooooooooooooooooooo  oooooX",
" OoOoOXXoOoOoOoOoOoOoOoOoOoOoOoOoOoO  oOoOoX",
" oOoooXXooOoooOoooOoooOoooOoooOoooOo  OoooOX",
" OoOoOXXoOoOoOoOoOoOoOoOoOoOoOoOoOoO  oOoOoX",
" oOoOoXXOoOoOoOoOoOoOoOoOoOoOoOoOoOo  OoOoOX",
" OOoOOXXOOOoOOOoOOOoOOOoOOOoOOOoOOOo  OoOOOX",
" OoOoOXXoOoOoOoOoOoOoOoOoOoOoOoOoOoO  oOoOoX",
" OOOOOXXOOOOOOOOOOOOOOOOOOOOOOOOOOOO  OOOOOX",
" OoOoOXX                              oOoOoX",
" OOOOOX                               OOOOOX",
" OOOoOOOoOOOoOOOoOOOoOOOoOOOoOOOoOOOoOOOoOOX",
" OOOOOOOOOOOOOOOOOOOOOOOOOOOOOOOOOOOOOOOOOOX",
" OoOOOoOOOOOOOoOOOOOOOoOOOOOOOoOOOOOOOoOOOOX",
" OOOOOOOOOOOOOOOOOOOOOOOOOOOOOOOOOOOOOOOOOOX",
" OOOOOOOOOOOOOOOOOOOOOOOOOOOOOOOOOOOOOOOOOOX",
".XXXXXXXXXXXXXXXXXXXXXXXXXXXXXXXXXXXXXXXXXXX"};
