/* XPM */
static char * img19_xpm[] = {
/* width height ncolors chars_per_pixel */
"44 44 5 1",
/* colors */
" 	c white",
".	c #B6B6B6",
"X	c black",
"o	c #A6A2A6",
"O	c #9A9B97",
/* pixels */
"                                           .",
" ..........................................X",
" ..........................................X",
" ..........................................X",
" o...o...o...o...o...o...o...o...o...o...o.X",
" ....XXXXXXXXXXXXXXXXXXXXXXXXXXXXXXXXX ....X",
" o.o.XXXXXXXXXXXXXXXXXXXXXXXXXXXXXXXX  o.o.X",
" ....XX...o.......o.......o.......o..  ...oX",
" o.o.XXo.o.o.o.o.o.o.o.o.o.o.o.o.o.o.  o.o.X",
" ...oXX.o...o...o...o...o...o...o...o  .o..X",
" o.o.XXo.o.X.o.o.o.o.o.o.o.o.o.o.o.o.  o.o.X",
" o.o.XXo.oXoXo.o.o.o.o.o.o.o.o.o.o.o.  o.o.X",
" .o.oXX.o.XXX.o.o.o.o.o.o.o.o.o.o.o.o  .o.oX",
" o.o.XXo.oXoXo.o.o.o.o.o.o.o.o.o.o.o.  o.o.X",
" oo.oXX.oXX.XXo.ooo.ooo.ooo.ooo.ooo.o  .oooX",
" o.o.XXo.o.o.o.o.o.o.o.o.o.o.o.o.o.o.  o.o.X",
" ooooXXoooooooooooooooooooooooooooooo  ooooX",
" o.o.XXo.XXXXX.o.o.o.o.X.o.o.o.o.o.o.  o.o.X",
" ooooXXooXoXoXoXooXooXoXXoooooooooooo  ooooX",
" ooo.XXo.ooX.oXXXooXXooX.ooo.ooo.ooo.  o.ooX",
" ooooXXooooXooXooooXXooXooooooooooooo  ooooX",
" ooooXXoooXXXooXooXooXooXoooooooooooo  ooooX",
" ooooXXoooooooooooooooooooooooooooooo  ooooX",
" OoooXXooOoooOXooOoooOoooOoooOoooOooo  ooOoX",
" ooooXXooXXXoooooooXooooooooooooooooo  ooooX",
" ooOoXXOoOXOooXOXXoXXooOoOoOoooOoOoOo  OoOoX",
" ooooXXoooXoooXoXooXooooooooooooooooo  ooooX",
" OoOoXXOoOXOXOXOoXoXoOoOoOoOoOoOoOoOo  OoOoX",
" ooooXXooXXXXoXoXXooXoooooooooooooooo  ooooX",
" OoOoXXOoOoOoOoOoOoOoOoOoOoOoOoOoOoOo  OoOoX",
" oOooXXoooOoooOoooOoooOoooOoooOoooOoo  oooOX",
" OoOoXXOoOoOoOoOoOoOoOoOoOoOoOoOoOoOo  OoOoX",
" oOoOXXoOoOoOoOoOoOoOoOoOoOoOoOoOoOoO  oOoOX",
" OOoOXXoOOOoOOOoOOOoOOOoOOOoOOOoOOOoO  oOOOX",
" OoOoXXOoOoOoOoOoOoOoOoOoOoOoOoOoOoOo  OoOoX",
" OOOOXXOOOOOOOOOOOOOOOOOOOOOOOOOOOOOO  OOOOX",
" OoOoXXOoOoOoOoOoOoOoOoOoOoOoOoOoOoOo  OoOoX",
" OOOOX                                 OOOOX",
" OOOo                                  OoOOX",
" OOOOOOOOOOOOOOOOOOOOOOOOOOOOOOOOOOOOOOOOOOX",
" OoOOOoOOOOOOOoOOOOOOOoOOOOOOOoOOOOOOOoOOOOX",
" OOOOOOOOOOOOOOOOOOOOOOOOOOOOOOOOOOOOOOOOOOX",
" OOOOOOOOOOOOOOOOOOOOOOOOOOOOOOOOOOOOOOOOOOX",
".XXXXXXXXXXXXXXXXXXXXXXXXXXXXXXXXXXXXXXXXXXX"};
