/* XPM */
static char * img1_xpm[] = {
/* width height ncolors chars_per_pixel */
"44 44 5 1",
/* colors */
" 	c white",
".	c #B6B6B6",
"X	c black",
"o	c #A6A2A6",
"O	c #9A9B97",
/* pixels */
"                                           .",
" ..........................................X",
" ..........................................X",
" ..........................................X",
" o...o...o...o...o...o...o...o...o...o...o.X",
" ..........................................X",
" o.o.o.o.o.o.o.o.o.o.o.o.o.o.o.o.o.o.o.o.o.X",
" .........o.......o.......o.......o.......oX",
" o.o.o.o.o.o.o.o.o.o.o.o.o.o.o.o.o.o.o.o.o.X",
" ...o...o...o...o...o...o...o...o...o...o..X",
" o.o.o.o.o.o.o.o.o.o.o.o.o.o.o.o.o.o.o.o.o.X",
" o.o.o.o.o.o.o.o.o.o.o.o.o.o.o.o.o.o.o.o.o.X",
" .o.o.o.o.o.o.o.o.o.o.o.o.o.o.o.o.o.o.o.o.oX",
" o.o.o.o.o.o.o.o.o.o.o.o.o.o.o.o.o.o.o.o.o.X",
" oo.o                                  .oooX",
" o.o.                                 Xo.o.X",
" oooo  ooooooooooooooooooooooooooooooXXooooX",
" o.o.  o.o.o.o.o.o.o.o.o.o.o.o.o.o.o.XXo.o.X",
" oooo  ooooooooooooooooooooooooooooooXXooooX",
" ooo.  o.ooXXXoo.oooXooX.ooo.ooo.ooo.XXo.ooX",
" oooo  oooooXoXoXoXoXXoXXooXooXXoooooXXooooX",
" oooo  oooooXXooXoXoXooXooXoXoXoXooooXXooooX",
" oooo  oooooXoXoXoXoXooXooXoXoXoXooooXXooooX",
" Oooo  ooOoXXXoooXXooXooXOoXoOXoXOoooXXooOoX",
" oooo  ooooooooooooooooooooooooooooooXXooooX",
" ooOo  OoOoOoooOoOoOoooOoOoOoooOoOoOoXXOoOoX",
" oooo  ooooooooooooooooooooooooooooooXXooooX",
" OoOo  XXXXXXXXXXXXXXXXXXXXXXXXXXXXXXXXOoOoX",
" oooo XXXXXXXXXXXXXXXXXXXXXXXXXXXXXXXXXooooX",
" OoOoOoOoOoOoOoOoOoOoOoOoOoOoOoOoOoOoOoOoOoX",
" oOoooOoooOoooOoooOoooOoooOoooOoooOoooOoooOX",
" OoOoOoOoOoOoOoOoOoOoOoOoOoOoOoOoOoOoOoOoOoX",
" oOoOoOoOoOoOoOoOoOoOoOoOoOoOoOoOoOoOoOoOoOX",
" OOoOOOoOOOoOOOoOOOoOOOoOOOoOOOoOOOoOOOoOOOX",
" OoOoOoOoOoOoOoOoOoOoOoOoOoOoOoOoOoOoOoOoOoX",
" OOOOOOOOOOOOOOOOOOOOOOOOOOOOOOOOOOOOOOOOOOX",
" OoOoOoOoOoOoOoOoOoOoOoOoOoOoOoOoOoOoOoOoOoX",
" OOOOOOOOOOOOOOOOOOOOOOOOOOOOOOOOOOOOOOOOOOX",
" OOOoOOOoOOOoOOOoOOOoOOOoOOOoOOOoOOOoOOOoOOX",
" OOOOOOOOOOOOOOOOOOOOOOOOOOOOOOOOOOOOOOOOOOX",
" OoOOOoOOOOOOOoOOOOOOOoOOOOOOOoOOOOOOOoOOOOX",
" OOOOOOOOOOOOOOOOOOOOOOOOOOOOOOOOOOOOOOOOOOX",
" OOOOOOOOOOOOOOOOOOOOOOOOOOOOOOOOOOOOOOOOOOX",
".XXXXXXXXXXXXXXXXXXXXXXXXXXXXXXXXXXXXXXXXXXX"};
