/* XPM */
static char * img15_xpm[] = {
/* width height ncolors chars_per_pixel */
"44 44 5 1",
/* colors */
" 	c white",
".	c #B6B6B6",
"X	c black",
"o	c #A6A2A6",
"O	c #9A9B97",
/* pixels */
"                                           .",
" ..........................................X",
" ..........................................X",
" ..........................................X",
" o...o...o...o...o...o...o...o...o...o...o.X",
" ..........................................X",
" o.o.o                               X.o.o.X",
" .....                              XX....oX",
" o.o.o  .o.o.o.o.o.o.XXo.o.o.o.o.o.oXX.o.o.X",
" ...o.  o............XX.............XX..o..X",
" o.o.o  .............XX.............XX.o.o.X",
" o.o.o  ..O..o.o.o..OXX..O.O.o.o.o.oXX.o.o.X",
" .o.o.  o...o.o.o.o..XX..O....o.o.o.XXo.o.oX",
" o.o.o  .o.....o.o.o.XX......o.o.o.oXX.o.o.X",
" oo.oo  ............. X             XXo.oooX",
" o.o.o  .............               XX.o.o.X",
" ooooo  ooooooooooooooooooooooooooooXXoooooX",
" o.o.o  .o.o.o.o.o.o.o.o.o.o.o.o.o.oXX.o.o.X",
" ooooo  ooooooooooooooooooooooooooooXXoooooX",
" ooo.o  .ooo.ooo.ooo.ooo.ooo.ooo.oooXXoo.ooX",
" ooooo  ooooooooooooooooooooooooooooXXoooooX",
" ooooo  ooooooooooooooooooooooooooooXXoooooX",
" ooooo  ooooooooooooooooooooooooooooXXoooooX",
" OoooO  oOoooOoooOoooOoooOoooOoooOooXXoooOoX",
" ooooo  ooooooooooooooooooooooooooooXXoooooX",
" ooOoo  oOoOoooOoOoOoooOoOoOoooOoOoOXXoOoOoX",
" ooooo  ooooooooooooooooooooooooooooXXoooooX",
" OoOoO  oOoOoOoOoOoOoOoOoOoOoOoOoOoOXXoOoOoX",
" ooooo  ooooooooooooooooooooooooooooXXoooooX",
" OoOoO  oOoOoOoOoOoOoOoOoOoOoOoOoOoOXXoOoOoX",
" oOooo  ooOoooOoooOoooOoooOoooOoooOoXXOoooOX",
" OoOoO  oOoOoOoOoOoOoOoOoOoOoOoOoOoOXXoOoOoX",
" oOoOo  OoOoOoOoOoOoOoOoOoOoOoOoOoOoXXOoOoOX",
" OOoOO  OOOoOOOoOOOoOOOoOOOoOOOoOOOoXXOoOOOX",
" OoOoO  oOoOoOoOoOoOoOoOoOoOoOoOoOoOXXoOoOoX",
" OOOOO  OOOOOOOOOOOOOOOOOOOOOOOOOOOOXXOOOOOX",
" OoOoO XXXXXXXXXXXXXXXXXXXXXXXXXXXXXXXoOoOoX",
" OOOOOXXXXXXXXXXXXXXXXXXXXXXXXXXXXXXXXOOOOOX",
" OOOoOOOoOOOoOOOoOOOoOOOoOOOoOOOoOOOoOOOoOOX",
" OOOOOOOOOOOOOOOOOOOOOOOOOOOOOOOOOOOOOOOOOOX",
" OoOOOoOOOOOOOoOOOOOOOoOOOOOOOoOOOOOOOoOOOOX",
" OOOOOOOOOOOOOOOOOOOOOOOOOOOOOOOOOOOOOOOOOOX",
" OOOOOOOOOOOOOOOOOOOOOOOOOOOOOOOOOOOOOOOOOOX",
".XXXXXXXXXXXXXXXXXXXXXXXXXXXXXXXXXXXXXXXXXXX"};
