/* XPM */
static char * img22_xpm[] = {
/* width height ncolors chars_per_pixel */
"44 44 5 1",
/* colors */
" 	c white",
".	c #B6B6B6",
"X	c black",
"o	c #A6A2A6",
"O	c #9A9B97",
/* pixels */
"                                           .",
" ..........................................X",
" .................... .....................X",
" ...................   ....................X",
" o...o...o...o...o.  o  .o...o...o...o...o.X",
" .................  ...  ..................X",
" o.o.o.o.o.o.o.o.  o.o.o  .o.o.o.o.o.o.o.o.X",
" .........o.....  o......  .......o.......oX",
" o.o.o.o.o.o.o.o.XXo.o.oXX.o.o.o.o.o.o.o.o.X",
" ...o...o...o...o.XXo..XX...o...o...o...o..X",
" o.o.o.o.o.o.o.o.o.XXoXX.o.o.o.o.o.o.o.o.o.X",
" o.o.o.o.o.o.o.o.o.oXXXo.o.o.o.o.o.o.o.o.o.X",
" .o.o.o.o.o.o.o.o.o.oXo.o.o.o.o.o.o.o.o.o.oX",
" o.o.o.o.o.o.o.o.o.o.o.o.o.o.o.o.o.o.o.o.o.X",
" oo.ooo.ooo.ooo.ooo.ooo.ooo.ooo.ooo.ooo.oooX",
" o.o.o.o.o.o.o.o.o.o. .o.o.o.o.o.o.o.o.o.o.X",
" ooooooooooooooooooo   ooooooooooooooooooooX",
" o.o.o.o.o.o.o.o.o.  o  .o.o.o.o.o.o.o.o.o.X",
" ooooooooooooooooo  ooo  ooooooooooooooooooX",
" ooo.ooo.ooo.ooo.  o.ooo  oo.ooo.ooo.ooo.ooX",
" ooooooooooooooo  ooooooo  ooooooooooooooooX",
" ooooooooooooooooXXoooooXXoooooooooooooooooX",
" oooooooooooooooooXXoooXXooooooooooooooooooX",
" OoooOoooOoooOoooOoXXOXXoOoooOoooOoooOoooOoX",
" oooooooooooooooooooXXXooooooooooooooooooooX",
" ooOoooOoOoOoooOoOoOoXoOoOoOoooOoOoOoooOoOoX",
" ooooooooooooooooooooooooooooooooooooooooooX",
" OoOoOoOoOoOoOoOoOoOoOoOoOoOoOoOoOoOoOoOoOoX",
" ooooooooooooooooooooXoooooooooooooooooooooX",
" OoOoOoOoOoOoOoOoOoOXXXOoOoOoOoOoOoOoOoOoOoX",
" oOoooOoooOoooOoooOXXXXXooOoooOoooOoooOoooOX",
" OoOoOoOoOoOoOoOoOXXXXXXXOoOoOoOoOoOoOoOoOoX",
" oOoOoOoOoOoOoOoOXXXXXXXXXOoOoOoOoOoOoOoOoOX",
" OOoOOOoOOOoOOOoXXXXXXXXXXXoOOOoOOOoOOOoOOOX",
" OoOoOoOoOoOoOoOo  XXXXX  oOoOoOoOoOoOoOoOoX",
" OOOOOOOOOOOOOOOOO  XXX  OOOOOOOOOOOOOOOOOOX",
" OoOoOoOoOoOoOoOoOo  X  oOoOoOoOoOoOoOoOoOoX",
" OOOOOOOOOOOOOOOOOOO   OOOOOOOOOOOOOOOOOOOOX",
" OOOoOOOoOOOoOOOoOOOo OOoOOOoOOOoOOOoOOOoOOX",
" OOOOOOOOOOOOOOOOOOOOOOOOOOOOOOOOOOOOOOOOOOX",
" OoOOOoOOOOOOOoOOOOOOOoOOOOOOOoOOOOOOOoOOOOX",
" OOOOOOOOOOOOOOOOOOOOOOOOOOOOOOOOOOOOOOOOOOX",
" OOOOOOOOOOOOOOOOOOOOOOOOOOOOOOOOOOOOOOOOOOX",
".XXXXXXXXXXXXXXXXXXXXXXXXXXXXXXXXXXXXXXXXXXX"};
