/* XPM */
static char * icn21_xpm[] = {
/* width height ncolors chars_per_pixel */
"44 44 5 1",
/* colors */
" 	c white",
".	c #B6B6B6",
"X	c black",
"o	c #A6A2A6",
"O	c #9A9B97",
/* pixels */
"                                           .",
" ..........................................X",
" ..........................................X",
" ..........................................X",
" o...o...o...o...o...o...o...o...o...o...o.X",
" ..........................................X",
" o.o.o.o.o.o.o.o.o.o.o.o.o.o.o.o.o.o.o.o.o.X",
" .........o.......o.......o.......o.......oX",
" o.o.o.o.o.o.o.o.o.o.o.o.o.o.o.o.o.o.o.o.o.X",
" ...o...o...o...o...o...o...o...o...o...o..X",
" o.o.o.o.o.o.o.o.o.o.o.o.o.o.o.o.o.o.o.o.o.X",
" o.o.o.o.o.o.o.o.o.o.o.o.o.o.o.o.o.o.o.o.o.X",
" .o.o.o.o.o.o.o.o.o.XXXXXXo.o.o.o.o.o.o.o.oX",
" o.o.o.o.o.o.o.o.o.XXXXXXXXo.o.o.o.o.o.o.o.X",
" oo.ooo.ooo.ooo.ooXXXoo..oXXooo.ooo.ooo.oooX",
" o.o.o.o.o.o.o.o.oXXoo.o.oXX.o.o.o.o.o.o.o.X",
" ooooooooooooooooooooooo..XXoooooooooooooooX",
" o.o.o.o.o.o.o.o.o.o.o...oXX.o.o.o.o.o.o.o.X",
" ooooooooooooooooooooo.oooXX.ooooooooooooooX",
" ooo.ooo.ooo.ooo.ooo.o.o.XXX.ooo.ooo.ooo.ooX",
" oooooooooooooooooooooooXXXooooooooooooooooX",
" ooooooooooooooooooooo.XXXoooooooooooooooooX",
" oooooooooooooooooooooXXXooooooooooooooooooX",
" OoooOoooOoooOoooOoooOXXoOoooOoooOoooOoooOoX",
" oooooooooooooooooooooXXoooooooooooooooooooX",
" ooOoooOoOoOoooOoOoOooXXoOoOoooOoOoOoooOoOoX",
" oooooooooooooooooooooXXoooooooooooooooooooX",
" OoOoOoOoOoOoOoOoOoOoOoOoOoOoOoOoOoOoOoOoOoX",
" ooooooooooooooooooooooooooooooooooooooooooX",
" OoOoOoOoOoOoOoOoOoOoOXXoOoOoOoOoOoOoOoOoOoX",
" oOoooOoooOoooOoooOoooXXooOoooOoooOoooOoooOX",
" OoOoOoOoOoOoOoOoOoOoOoOoOoOoOoOoOoOoOoOoOoX",
" oOoOoOoOoOoOoOoOoOoOoOoOoOoOoOoOoOoOoOoOoOX",
" OOoOOOoOOOoOOOoOOOoOOOoOOOoOOOoOOOoOOOoOOOX",
" OoOoOoOoOoOoOoOoOoOoOoOoOoOoOoOoOoOoOoOoOoX",
" OOOOOOOOOOOOOOOOOOOOOOOOOOOOOOOOOOOOOOOOOOX",
" OoOoOoOoOoOoOoOoOoOoOoOoOoOoOoOoOoOoOoOoOoX",
" OOOOOOOOOOOOOOOOOOOOOOOOOOOOOOOOOOOOOOOOOOX",
" OOOoOOOoOOOoOOOoOOOoOOOoOOOoOOOoOOOoOOOoOOX",
" OOOOOOOOOOOOOOOOOOOOOOOOOOOOOOOOOOOOOOOOOOX",
" OoOOOoOOOOOOOoOOOOOOOoOOOOOOOoOOOOOOOoOOOOX",
" OOOOOOOOOOOOOOOOOOOOOOOOOOOOOOOOOOOOOOOOOOX",
" OOOOOOOOOOOOOOOOOOOOOOOOOOOOOOOOOOOOOOOOOOX",
".XXXXXXXXXXXXXXXXXXXXXXXXXXXXXXXXXXXXXXXXXXX"};
