/* XPM */
static char * img30_xpm[] = {
/* width height ncolors chars_per_pixel */
"44 44 5 1",
/* colors */
" 	c white",
".	c #B6B6B6",
"X	c black",
"o	c #A6A2A6",
"O	c #9A9B97",
/* pixels */
"                                           .",
" ..........................................X",
" ..........................................X",
" ..........................................X",
" o...o...o...o...o...o...o...o...o...o...o.X",
" ..........................................X",
" o.o.o.o.o.o.o.o.o.o.o.o.o.o.o.o.o.o.o.o.o.X",
" ......XXXXXXXXXXXXXXXXXXXXXXXXXXXXXX.....oX",
" o.o.o.X.o.o.o.o.X.o.o.o.o.X.o.o.o.oXo.o.o.X",
" ...o..Xo...o...oX..o...o..Xo...o...X...o..X",
" o.o.o.X.o.o.o.o.X.o.o.o.o.X.o.o.o.oXo.o.o.X",
" o.o.o.X.o.o.o.o.X.o.o.o.o.X.o.o.o.oXo.o.o.X",
" .o.o.oXo.o.o.o.oXo.o.o.o.oXo.o.o.o.X.o.o.oX",
" o.o.o.X.o.o.o.o.X.o.o.o.o.X.o.o.o.oXo.o.o.X",
" oo.oooXooo.ooo.oXo.ooo.oooXooo.ooo.Xoo.oooX",
" o.o.o.X.........X.........X........Xo.o.o.X",
" ooooooXXXXXXXXXXXXXXXXXXXXXXXXXXXXXXooooooX",
" o.o.o.X.o.o.o.o.X.o.o.o.o.X.o.o.o.oXo.o.o.X",
" ooooooXoooooooooXoooooooooXooooooooXooooooX",
" ooo.ooX.ooo.ooo.Xoo.ooo.ooX.ooo.oooXooo.ooX",
" ooooooXoooooooooXoooooooooXooooooooXooooooX",
" ooooooXoooooooooXoooooooooXooooooooXooooooX",
" ooooooXoooooooooXoooooooooXooooooooXooooooX",
" OoooOoXoOoooOoooXoooOoooOoXoOoooOooXOoooOoX",
" ooooooXoooooooooXoooooooooXooooooooXooooooX",
" ooOoooXXXXXXXXXXXXXXXXXXXXXXXXXXXXXXooOoOoX",
" ooooooXoooooooooXoooooooooXooooooooXooooooX",
" OoOoOoXoOoOoOoOoXoOoOoOoOoXoOoOoOoOXOoOoOoX",
" ooooooXoooooooooXoooooooooXooooooooXooooooX",
" OoOoOoXoOoOoOoOoXoOoOoOoOoXoOoOoOoOXOoOoOoX",
" oOoooOXooOoooOooXOoooOoooOXooOoooOoXoOoooOX",
" OoOoOoXoOoOoOoOoXoOoOoOoOoXoOoOoOoOXOoOoOoX",
" oOoOoOXOoOoOoOoOXOoOoOoOoOXOoOoOoOoXoOoOoOX",
" OOoOOOXOOOoOOOoOXOoOOOoOOOXOOOoOOOoXOOoOOOX",
" OoOoOoXoOoOoOoOoXoOoOoOoOoXoOoOoOoOXOoOoOoX",
" OOOOOOXXXXXXXXXXXXXXXXXXXXXXXXXXXXXXOOOOOOX",
" OoOoOoOOOOOOOOOOOOOOOOOOOOOOOOOOOOOOOoOoOoX",
" OOOOOOOOOOOOOOOOOOOOOOOOOOOOOOOOOOOOOOOOOOX",
" OOOoOOOoOOOoOOOoOOOoOOOoOOOoOOOoOOOoOOOoOOX",
" OOOOOOOOOOOOOOOOOOOOOOOOOOOOOOOOOOOOOOOOOOX",
" OoOOOoOOOOOOOoOOOOOOOoOOOOOOOoOOOOOOOoOOOOX",
" OOOOOOOOOOOOOOOOOOOOOOOOOOOOOOOOOOOOOOOOOOX",
" OOOOOOOOOOOOOOOOOOOOOOOOOOOOOOOOOOOOOOOOOOX",
".XXXXXXXXXXXXXXXXXXXXXXXXXXXXXXXXXXXXXXXXXXX"};
