/* XPM */
static char * img9_xpm[] = {
/* width height ncolors chars_per_pixel */
"44 44 5 1",
/* colors */
" 	c white",
".	c #B6B6B6",
"X	c black",
"o	c #A6A2A6",
"O	c #9A9B97",
/* pixels */
"                                           .",
" ..........................................X",
" ..........................................X",
" ..........................................X",
" o...o...o...o...o...o...o...o...o...o...o.X",
" ....XXXXXXXXXXXXXXXXXXXXXXXXXXXXXXXXX ....X",
" o.o.XXXXXXXXXXXXXXXXXXXXXXXXXXXXXXXX  o.o.X",
" ....XX                                ...oX",
" o.o.XX                                o.o.X",
" ...oXX  ...o...o...o...o...o...o..XX  .o..X",
" o.o.XX  o.o.o.o.o.o.o.o.o.o.o.o.o.XX  o.o.X",
" o.o.XX  o.o.o.o.o.o.o.o.o.o.o.o.o.XX  o.o.X",
" .o.oXX  .o.o.o.o.o.o.o.o.o.o.o.o.oXX  .o.oX",
" o.o.XX  o.o.o.o.o.o.o.o.o.o.o.o.o.XX  o.o.X",
" oo.oXX  oo.ooo.ooo.ooo.ooo.ooo.oooXX  .oooX",
" o.o.XX  o.o.o.o.o.o.o.o.o.o.o.o.o.XX  o.o.X",
" ooooXX  ooooooooooooooooooooooooooXX  ooooX",
" o.o.XX  o.o.o.o.o.o.o.o.o.o.o.o.o.XX  o.o.X",
" ooooXX  ooooooooooooooooooooooooooXX  ooooX",
" ooo.XX  ooo.ooo.ooo.ooo.ooo.ooo.ooXX  o.ooX",
" ooooXX  ooooooooooooooooooooooooooXX  ooooX",
" ooooXX  ooooooooooooooooooooooooooXX  ooooX",
" ooooXX  ooooooooooooooooooooooooooXX  ooooX",
" OoooXX  OoooOoooOoooOoooOoooOoooOoXX  ooOoX",
" ooooXX  ooooooooooooooooooooooooooXX  ooooX",
" ooOoXX  OoOoooOoOoOoooOoOoOoooOoOoXX  OoOoX",
" ooooXX  ooooooooooooooooooooooooooXX  ooooX",
" OoOoXX  OoOoOoOoOoOoOoOoOoOoOoOoOoXX  OoOoX",
" ooooXX  ooooooooooooooooooooooooooXX  ooooX",
" OoOoXX  OoOoOoOoOoOoOoOoOoOoOoOoOoXX  OoOoX",
" oOooXX  oOoooOoooOoooOoooOoooOoooOXX  oooOX",
" OoOoXX  OoOoOoOoOoOoOoOoOoOoOoOoOoXX  OoOoX",
" oOoOXX  oOoOoOoOoOoOoOoOoOoOoOoOoOXX  oOoOX",
" OOoOXX  OOoOOOoOOOoOOOoOOOoOOOoOOOXX  oOOOX",
" OoOoXX  XXXXXXXXXXXXXXXXXXXXXXXXXXXX  OoOoX",
" OOOOXX  XXXXXXXXXXXXXXXXXXXXXXXXXXXX  OOOOX",
" OoOoX                                 OoOoX",
" OOOO                                  OOOOX",
" OOOoOOOoOOOoOOOoOOOoOOOoOOOoOOOoOOOoOOOoOOX",
" OOOOOOOOOOOOOOOOOOOOOOOOOOOOOOOOOOOOOOOOOOX",
" OoOOOoOOOOOOOoOOOOOOOoOOOOOOOoOOOOOOOoOOOOX",
" OOOOOOOOOOOOOOOOOOOOOOOOOOOOOOOOOOOOOOOOOOX",
" OOOOOOOOOOOOOOOOOOOOOOOOOOOOOOOOOOOOOOOOOOX",
".XXXXXXXXXXXXXXXXXXXXXXXXXXXXXXXXXXXXXXXXXXX"};
