/* XPM */
static char * img5_xpm[] = {
/* width height ncolors chars_per_pixel */
"44 44 8 1",
/* colors */
" 	c white",
".	c #B6B6B6",
"X	c black",
"o	c #A6A2A6",
"O	c #9A9B97",
"+	c green",
"@	c blue",
"#	c red",
/* pixels */
"                                           .",
" ..........................................X",
" ..........................................X",
" ..........................................X",
" o...o...o...o...o...o...o...o...o...o...o.X",
" ..........................................X",
" o.o.o.o.o.XXXXXXXXXXXXXXXXo.o.o.o.o.o.o.o.X",
" .........oX              XX......o.......oX",
" o.o.o.o.o.X OOOOOOOOOOOOOX Xo.o.o.o.o.o.o.X",
" ...o...o..X OOO+++OOOOOOOX  X..o...o...o..X",
" o.o.o.o.o.X OO+++++OOOOOOX   Xo.o.o.o.o.o.X",
" o.o.o.o.o.X O+++++++OOOOOX    X.o.o.o.o.o.X",
" .o.o.o.o.oX O+++++++OOOOOXXXXXXX.o.o.o.o.oX",
" o.o.o.o.o.X O+++++++OOOOOXXXXXXXo.o.o.o.o.X",
" oo.ooo.oooX OO+++++OOOOOOOOOOO Xoo.ooo.oooX",
" o.o.o.o.o.X OOO+++OOOOOOOOOOOO Xo.o.o.o.o.X",
" ooooooooooX OOOOOOOOOOOOOOOOOO XooooooooooX",
" o.o.o.o.o.X @OOOOOOO#######OOO Xo.o.o.o.o.X",
" ooooooooooX @@OOOOOO#######OOO XooooooooooX",
" ooo.ooo.ooX @@@OOOOO#######OOO Xooo.ooo.ooX",
" ooooooooooX @@@@OOOO#######OOO XooooooooooX",
" ooooooooooX @@@@@OOO#######OOO XooooooooooX",
" ooooooooooX @@@@OOOO#######OOO XooooooooooX",
" OoooOoooOoX @@@OOOOO#######OOO XOoooOoooOoX",
" ooooooooooX @@OOOOOOOOOOOOOOOO XooooooooooX",
" ooOoooOoOoX @OOOOOOOOOOOOOOOOO XOoOoooOoOoX",
" ooooooooooX                    XooooooooooX",
" OoOoOoOoOoXXXXXXXXXXXXXXXXXXXXXXOoOoOoOoOoX",
" ooooooooooooooooooooooooooooooooooooooooooX",
" OoOoOoOoOoOoOoOoOoOoOoOoOoOoOoOoOoOoOoOoOoX",
" oOoooOoooOoooOoooOoooOoooOoooOoooOoooOoooOX",
" OoOoOoOXXXXoOoOoOoOoOoOoOoOoOoOoOoOoOoOoOoX",
" oOoOoOoOXOoXoOoOoOoXoOoXoOoOoOoOoOoOoOoOoOX",
" OOoOOOoOXOoXOXoOXOXXXOXXXOoXXOoXXXoOOOoOOOX",
" OoOoOoOoXXXoOXOoXoOXOoOXOoXoOXOXOoXoOoOoOoX",
" OOOOOOOOXOOXOXOOXOOXOOOXOOXOOXOXOOXOOOOOOOX",
" OoOoOoOoXoOXOXOoXoOXOoOXOoXoOXOXOoXoOoOoOoX",
" OOOOOOOXXXXOOOXXOXOOXXOOXXOXXOOXXOXXOOOOOOX",
" OOOoOOOoOOOoOOOoOOOoOOOoOOOoOOOoOOOoOOOoOOX",
" OOOOOOOOOOOOOOOOOOOOOOOOOOOOOOOOOOOOOOOOOOX",
" OoOOOoOOOOOOOoOOOOOOOoOOOOOOOoOOOOOOOoOOOOX",
" OOOOOOOOOOOOOOOOOOOOOOOOOOOOOOOOOOOOOOOOOOX",
" OOOOOOOOOOOOOOOOOOOOOOOOOOOOOOOOOOOOOOOOOOX",
".XXXXXXXXXXXXXXXXXXXXXXXXXXXXXXXXXXXXXXXXXXX"};
