/* XPM */
static char * icon_xpm[] = {
/* width height ncolors chars_per_pixel */
"56 46 8 1",
/* colors */
" 	c white",
".	c #B6B6B6",
"X	c black",
"o	c #A6A2A6",
"O	s purple	c #9A9B97",
"+	c #CF3CDF7D30C2",
"@	c purple",
"#	s green	c red",
/* pixels */
"                                                       .",
" ......................................................X",
" ......................................................X",
" ......................................................X",
" ..o...o...o...o...o...o...o...o...o...o...o...o...o...X",
" ......................................................X",
" o.o.o.o.o.o.o.o.o.o.o.o.o.o.o.o.o.o.o.o.o.o.o.o.o.o.o.X",
" ...o.......o.......o.......o.......o.......o.......o..X",
" o.o.o.o.o.o.o.o.o.o.o.o.o.o.o.o.o.o.o.o.o.o.o.o.o.o.o.X",
" .o...o...o...oXXXXXXXXXXXXXXXXX.o.o.o.o..o...o...o...oX",
" o.o.o.o.o.o.o.X               XX...o.o.oo.o.o.o.o.o.o.X",
" ...o.o.o...o.oX               X X.o.o.o....o.o.o...o.oX",
" o.o.o.o.o.o.o.X  OOOOOOOOOOOOOX  X.o.o.oo.o.o.o.o.o.o.X",
" .o.o.o.o.o.o.oX  OOOOO+++OOOOOX   X.o.o..o.o.o.o.o.o.oX",
" o.o.o.o.o.o.o.X  OOOO+++++OOOOX    X.oooo.o.o.o.o.o.o.X",
" .ooo.ooo.ooo.oX  OOO+++++++OOOX     X.o..ooo.ooo.ooo.oX",
" o.o.o.o.o.o.o.X  OO+++++++++OOX      Xooo.o.o.o.o.o.o.X",
" ooooooooooooooX  OO+++++++++OOX       X.ooooooooooooooX",
" o.o.o.o.o.o.o.X  OO+++++++++OOXXXXXXXXXXo.o.o.o.o.o.o.X",
" ooooooooooooooX  OOO+++++++OOOXXXXXXXXXXooooooooooooooX",
" o.ooo.ooo.ooo.X  OOOO+++++OOOOOOOOOO  XXo.ooo.ooo.ooo.X",
" ooooooooooooooX  OOOOO+++OOOOOOOOOOO  XXooooooooooooooX",
" ooooooooooooooX  OOOOOOOOOOOOOOOOOOO  XXooooooooooooooX",
" ooooooooooooooX  @OOOOOOOOOOOOOOOOOO  XXooooooooooooooX",
" ooOoooOoooOoooX  @@OOOOOOOO#######OO  XXooOoooOoooOoooX",
" ooooooooooooooX  @@@OOOOOOO#######OO  XXooooooooooooooX",
" OoOoOoooOoOoOoX  @@@@OOOOOO#######OO  XXOoOoOoooOoOoOoX",
" ooooooooooooooX  @@@@@OOOOO#######OO  XXooooooooooooooX",
" OoOoOoOoOoOoOoX  @@@@@@OOOO#######OO  XXOoOoOoOoOoOoOoX",
" ooooooooooooooX  @@@@@OOOOO#######OO  XXooooooooooooooX",
" OoOoOoOoOoOoOoX  @@@@OOOOOO#######OO  XXOoOoOoOoOoOoOoX",
" oooOoooOoooOooX  @@@OOOOOOO#######OO  XXoooOoooOoooOooX",
" OoOoOoOoOoOoOoX  @@OOOOOOOOOOOOOOOOO  XXOoOoOoOoOoOoOoX",
" oOoOoOoOoOoOoOX  @OOOOOOOOOOOOOOOOOO  XXoOoOoOoOoOoOoOX",
" OoOoOoOoOoOoOoX                       XXOoOoOoOoOoOoOoX",
" oOOOoOOOoOOOoOX                       XXoOOOoOOOoOOOoOX",
" OoOoOoOoOoOoOoXXXXXXXXXXXXXXXXXXXXXXXXXXOoOoOoOoOoOoOoX",
" OOOOOOOOOOOOOOXXXXXXXXXXXXXXXXXXXXXXXXXXOOOOOOOOOOOOOOX",
" OoOoOoOoOoOoOoOoOoOoOoOoOoOoOoOoOoOoOoOoOoOoOoOoOoOoOoX",
" OOOOOOOOOOOOOOOOOOOOOOOOOOOOOOOOOOOOOOOOOOOOOOOOOOOOOOX",
" OoOOOoOOOoOOOoOOOoOOOoOOOoOOOoOOOoOOOoOOOoOOOoOOOoOOOoX",
" OOOOOOOOOOOOOOOOOOOOOOOOOOOOOOOOOOOOOOOOOOOOOOOOOOOOOOX",
" OOOOOOOoOOOOOOOoOOOOOOOoOOOOOOOoOOOOOOOoOOOOOOOoOOOOOOX",
" OOOOOOOOOOOOOOOOOOOOOOOOOOOOOOOOOOOOOOOOOOOOOOOOOOOOOOX",
" OOOOOOOOOOOOOOOOOOOOOOOOOOOOOOOOOOOOOOOOOOOOOOOOOOOOOOX",
".XXXXXXXXXXXXXXXXXXXXXXXXXXXXXXXXXXXXXXXXXXXXXXXXXXXXXXX"};
