/* XPM */
static char * img23_xpm[] = {
/* width height ncolors chars_per_pixel */
"44 44 5 1",
/* colors */
" 	c white",
".	c #B6B6B6",
"X	c black",
"o	c #A6A2A6",
"O	c #9A9B97",
/* pixels */
"                                           .",
" ..........................................X",
" ..........................................X",
" ..........................................X",
" o...o...o...o...o...o...o...o...o...o...o.X",
" ..........................................X",
" o.o.o.o.o.o.o.o.o.o.o.o.o.o.o.o.o.o.o.o.o.X",
" .........o.......o.......o.......o.......oX",
" o.o.o.o                            .o.o.o.X",
" ...o...             X             Xo...o..X",
" o.o.o.o  .o.o.o.o.oXX  .o.o.o.o.oXX.o.o.o.X",
" o.o.o.o  .o.o.o.o.oXX  .o.o.o.o.oXX.o.o.o.X",
" .o.o.o.  o.o.o.o.o.XX  o.o.o.o.o.XXo.o.o.oX",
" o.o.o.o  .o.o.o.o.oXX  .o.o.o.o.oXX.o.o.o.X",
" oo.ooo.  o.ooo.ooo.XX  ooo.ooo.ooXXooo.oooX",
" o.o.o.o  .o.o.o.o.oXX  .o.o.o.o.oXX.o.o.o.X",
" ooooooo  ooooooooooXX  ooooooooooXXoooooooX",
" o.o.o.o  .o.o.o.o.oXX  .o.o.o.o.oXX.o.o.o.X",
" ooooooo  ..........XX  ooooooooooXXoooooooX",
" ooo.ooo  XXXXXXXXXXXXXXXXXXXXXXXXXX.ooo.ooX",
" ooooooo  XXXXXXXXXXXXXXXXXXXXXXXXXXoooooooX",
" ooooooo             X             XoooooooX",
" ooooooo            XX            XXoooooooX",
" OoooOoo  oooOoooOooXX  oOoooOoooOXXoOoooOoX",
" ooooooo  ooooooooooXX  ooooooooooXXoooooooX",
" ooOoooO  oOoooOoOoOXX  oOoOoooOoOXXoooOoOoX",
" ooooooo  ooooooooooXX  ooooooooooXXoooooooX",
" OoOoOoO  oOoOoOoOoOXX  oOoOoOoOoOXXoOoOoOoX",
" ooooooo  ooooooooooXX  ooooooooooXXoooooooX",
" OoOoOoO  oOoOoOoOoOXX  oOoOoOoOoOXXoOoOoOoX",
" oOoooOo  OoooOoooOoXX  ooOoooOoooXXooOoooOX",
" OoOoOoO  oOoOoOoOoOXX  oOoOoOoOoOXXoOoOoOoX",
" oOoOoOo  XXXXXXXXXXXX  XXXXXXXXXXXXOoOoOoOX",
" OOoOOOo XXXXXXXXXXXXX XXXXXXXXXXXXXOOOoOOOX",
" OoOoOoOoOoOoOoOoOoOoOoOoOoOoOoOoOoOoOoOoOoX",
" OOOOOOOOOOOOOOOOOOOOOOOOOOOOOOOOOOOOOOOOOOX",
" OoOoOoOoOoOoOoOoOoOoOoOoOoOoOoOoOoOoOoOoOoX",
" OOOOOOOOOOOOOOOOOOOOOOOOOOOOOOOOOOOOOOOOOOX",
" OOOoOOOoOOOoOOOoOOOoOOOoOOOoOOOoOOOoOOOoOOX",
" OOOOOOOOOOOOOOOOOOOOOOOOOOOOOOOOOOOOOOOOOOX",
" OoOOOoOOOOOOOoOOOOOOOoOOOOOOOoOOOOOOOoOOOOX",
" OOOOOOOOOOOOOOOOOOOOOOOOOOOOOOOOOOOOOOOOOOX",
" OOOOOOOOOOOOOOOOOOOOOOOOOOOOOOOOOOOOOOOOOOX",
".XXXXXXXXXXXXXXXXXXXXXXXXXXXXXXXXXXXXXXXXXXX"};
