/* XPM */
static char * img33_xpm[] = {
/* width height ncolors chars_per_pixel */
"44 44 5 1",
/* colors */
" 	c white",
".	c #B6B6B6",
"X	c black",
"o	c #A6A2A6",
"O	c #9A9B97",
/* pixels */
"                                           .",
" ..........................................X",
" ..........................................X",
" ..........................................X",
" o..XXX..XXX.oXXXo.XXX..XXX..XXX.oXXXo.X.o.X",
" ..........................................X",
" o.o.o.o.o.o.o.o.o.o.X.o.o.o.o.o.o.o.o.o.o.X",
" .........o.......o.XXX...o.......o.......oX",
" o.o.o.o.o.o.o.o.o.XXXXX.o.o.o.o.o.o.o.o.o.X",
" ...o...o...o...o.XXoX.XX...o...o...o...o..X",
" o.o.o.o.o.o.o.o.oXo.X.oXo.o.o.o.o.o.o.o.o.X",
" o.o.o.o.o.o.o.o.o.o.X.o.o.o.o.o.o.o.o.o.o.X",
" .o.o.o.o.o.o.o.o.o.oXo.o.o.o.o.o.o.o.o.o.oX",
" o.o.o.o.o.o.o.o.o.o.X.o.o.o.o.o.o.o.o.o.o.X",
" oo.ooo.ooo.ooo.ooo.oXo.ooo.ooo.ooo.ooo.oooX",
" o.o.o.o.o.o.o.o.o.o.o.o.o.o.o.o.o.o.o.o.o.X",
" ooooooooooooooooooooooooooooooooooooooooooX",
" o.o.o.o.o.o.o.o.o.o.o.o.o.o.o.o.o.o.o.o.o.X",
" ooooooooooooooooooooooooooooooooooooooooooX",
" ooo.ooo.ooo.ooo.ooo.ooo.ooo.ooo.ooo.ooo.ooX",
" ooooooooooooooooooooooooooooooooooooooooooX",
" ooooooooooooooooooooooooooooooooooooooooooX",
" ooooooooooooooooooooooooooooooooooooooooooX",
" OoooOoooOoooOoooOoooOoooOoooOoooOoooOoooOoX",
" ooooooooooooooooooooooooooooooooooooooooooX",
" ooOoooOoOoOoooOoOoOoooOoOoOoooOoOoOoooOoOoX",
" ooooooooooooooooooooooooooooooooooooooooooX",
" OoOoOoOoOoOoOoOoOoOoOoOoOoOoOoOoOoOoOoOoOoX",
" ooooooooooooooooooooooooooooooooooooooooooX",
" OoOoOoOoOoOoOoOoOoOoOoOoOoOoOoOoOoOoOoOoOoX",
" oOoooOoooOoooOoooOoooOoooOoooOoooOoooOoooOX",
" OoOoOoOoOoOoOoOoOoOoOoOoOoOoOoOoOoOoOoOoOoX",
" oOoOoOoOoOoOoOoOoOoOoOoOoOoOoOoOoOoOoOoOoOX",
" OOoOOOoOOOoOOOoOOOoOOOoOOOoOOOoOOOoOOOoOOOX",
" OoOoOoOoOoOoOoOoOoOoOoOoOoOoOoOoOoOoOoOoOoX",
" OOOOOOOOOOOOOOOOOOOOOOOOOOOOOOOOOOOOOOOOOOX",
" OoOoOoOoOoOoOoOoOoOoOoOoOoOoOoOoOoOoOoOoOoX",
" OOOOOOOOOOOOOOOOOOOOOOOOOOOOOOOOOOOOOOOOOOX",
" OOOoOOOoOOOoOOOoOOOoOOOoOOOoOOOoOOOoOOOoOOX",
" OOOOOOOOOOOOOOOOOOOOOOOOOOOOOOOOOOOOOOOOOOX",
" OoOOOoOOOOOOOoOOOOOOOoOOOOOOOoOOOOOOOoOOOOX",
" OOOOOOOOOOOOOOOOOOOOOOOOOOOOOOOOOOOOOOOOOOX",
" OOOOOOOOOOOOOOOOOOOOOOOOOOOOOOOOOOOOOOOOOOX",
".XXXXXXXXXXXXXXXXXXXXXXXXXXXXXXXXXXXXXXXXXXX"};
