/* XPM */
static char * img29_xpm[] = {
/* width height ncolors chars_per_pixel */
"44 44 5 1",
/* colors */
" 	c white",
".	c #B6B6B6",
"X	c black",
"o	c #A6A2A6",
"O	c #9A9B97",
/* pixels */
"                                           .",
" ..........................................X",
" ..........................................X",
" ..........................................X",
" o...o...o...o...o...o...o...o...o...o...o.X",
" .....            .........................X",
" o.o.o           X.o.o.o.o.o.o.o.o.o.o.o.o.X",
" .....  ..o.....XXo.......o.......o.......oX",
" o.o.o  .o.o.o.oXX.o.o.o.o.o.o.o.o.o.o.o.o.X",
" ...o.  o...o...XX..o...o...o...o...o...o..X",
" o.o.o  .o.o.o.oXX.o.o.o.o.o.o.o.o.o.o.o.o.X",
" o.o.o  .o.o.o.oXX.o.o.o.o.o.o.o.o.o.o.o.o.X",
" .o.o.  o.o.o.o.XXo.o.o.o.o.o.o.o.o.o.o.o.oX",
" o.o.o  .o.o.o.oXX.o.o.o.o.o.o.o.o.o.o.o.o.X",
" oo.oo  XXXXXXXXXXo.ooo.ooo.ooo.ooo.ooo.oooX",
" o.o.o XXXXXXXXXXX.o.o.o.o.o.o.o.o.o.o.o.o.X",
" ooooooooooooooooooooooooooooooooooooooooooX",
" o.o.o.o.o.o.o.o.o.o.o.o.o.o.o.o.o.o.o.o.o.X",
" ooooooooooooooooooXXooooooooooooooooooooooX",
" ooo.ooo.ooo.ooo.ooXXXoo.ooo.ooo.ooo.ooo.ooX",
" oooooooooooooooooooXXXoooXooooooooooooooooX",
" ooooooooooooooooooooXXXoXXooooooooooooooooX",
" oooooooooooooooooooooXXXXXooooooooooooooooX",
" OoooOoooOoooOoooOoooOoXXXXooOoooOoooOoooOoX",
" oooooooooooooooooooooXXXXXooooooooooooooooX",
" ooOoooOoOoOoooOoOoOoXXXXXXOoooOoOoOoooOoOoX",
" ooooooooooooooooooooooooooooooooooooooooooX",
" OoOoOoOoOoOoOoOoOoOoOoOoOoOoOoOoOoOoOoOoOoX",
" ooooooooooooooooooooooooo            oooooX",
" OoOoOoOoOoOoOoOoOoOoOoOoO           XoOoOoX",
" oOoooOoooOoooOoooOoooOooo  ooOoooOoXXOoooOX",
" OoOoOoOoOoOoOoOoOoOoOoOoO  oOoOoOoOXXoOoOoX",
" oOoOoOoOoOoOoOoOoOoOoOoOo  OoOoOoOoXXOoOoOX",
" OOoOOOoOOOoOOOoOOOoOOOoOO  OOOoOOOoXXOoOOOX",
" OoOoOoOoOoOoOoOoOoOoOoOoO  oOoOoOoOXXoOoOoX",
" OOOOOOOOOOOOOOOOOOOOOOOOO  OOOOOOOOXXOOOOOX",
" OoOoOoOoOoOoOoOoOoOoOoOoO  oOoOoOoOXXoOoOoX",
" OOOOOOOOOOOOOOOOOOOOOOOOO  XXXXXXXXXXOOOOOX",
" OOOoOOOoOOOoOOOoOOOoOOOoO XXXXXXXXXXXOOoOOX",
" OOOOOOOOOOOOOOOOOOOOOOOOOOOOOOOOOOOOOOOOOOX",
" OoOOOoOOOOOOOoOOOOOOOoOOOOOOOoOOOOOOOoOOOOX",
" OOOOOOOOOOOOOOOOOOOOOOOOOOOOOOOOOOOOOOOOOOX",
" OOOOOOOOOOOOOOOOOOOOOOOOOOOOOOOOOOOOOOOOOOX",
".XXXXXXXXXXXXXXXXXXXXXXXXXXXXXXXXXXXXXXXXXXX"};
