/* XPM */
static char * img11_xpm[] = {
/* width height ncolors chars_per_pixel */
"44 44 5 1",
/* colors */
" 	c white",
".	c #B6B6B6",
"X	c black",
"o	c #A6A2A6",
"O	c #9A9B97",
/* pixels */
"                                           .",
" ..........................................X",
" ..........................................X",
" ..........................................X",
" o..                                    .o.X",
" ...                                   X...X",
" o.o  .oXX.o.XXo.X.oXo.o.XXoXo.oXXXo.oXX.o.X",
" ...  ....oX.XX...XX......oX......o...XX..oX",
" o.o  XXXXXXXXXXXXXXXXXXXXXXXXXXXXXXXXXX.o.X",
" ... XXXXXXXXXXXXXXXXXXXXXXXXXXXXXXXXXXXo..X",
" o.o         XXo.o.o.o.o.o.o.o.o.o.o.o.o.o.X",
" o.o         XXo.o.o.o.o.o.o.o.o.o.o.o.o.o.X",
" .o.  o.o.o.oXX.o.o.o.o.o.o.o.o.o.o.o.o.o.oX",
" o.o  .XXoXo.XXo.o.o.o.o.o.o.o.o.o.o.o.o.o.X",
" oo.  o.ooo.oXX.ooo.ooo.ooo.ooo.ooo.ooo.oooX",
" o.o  .X.XXX.XXo.o.o.o.o.o.o.o.o.o.o.o.o.o.X",
" ooo  oooooooXXooooooooooooooooooooooooooooX",
" o.o  .XXXXo.XXo.o.o.o.o.o.o.o.o.o.o.o.o.o.X",
" ooo  oooooooXXooooooooooooooooooooooooooooX",
" ooo  oX.XXX.XXo.ooo.ooo.ooo.ooo.ooo.ooo.ooX",
" ooo  oooooooXXooooooooooooooooooooooooooooX",
" ooo  oXXXXXoXXooooooooooooooooooooooooooooX",
" ooo  oooooooXXooooooooooooooooooooooooooooX",
" Ooo  oooOoooXXooOoooOoooOoooOoooOoooOoooOoX",
" ooo  XXXXXXXXXooooooooooooooooooooooooooooX",
" ooOXXXXXXXXXXXOoOoOoooOoOoOoooOoOoOoooOoOoX",
" ooooooooooooooooooooooooooooooooooooooooooX",
" OoOoOoOoOoOoOoOoOoOoOoOoOoOoOoOoOoOoOoOoOoX",
" ooooooooooooooooooooooooooooooooooooooooooX",
" OoOoOoOoOoOoOoOoOoOoOoOoOoOoOoOoOoOoOoOoOoX",
" oOoooOoooOXXXOooXXXooOoooOoooOoooOoooOoooOX",
" OoOoOoOoOoOXXoOoXXOoOoOoOoOoOoOoOoOoOoOoOoX",
" oOoOoOoOoOoXXOoOXXoOoXXOXXXOoXoOXOoOoOoOoOX",
" OOoOOOoOOOoXOXoXOXoOXOXOXOoXOXoOXOoOOOoOOOX",
" OoOoOoOoOoOXOXOXOXOoXXOoXoOXOXOoXoOoOoOoOoX",
" OOOOOOOOOOOXOOXOOXOOXOOOXOOXOXOOXOOOOOOOOOX",
" OoOoOoOoOoXXXoXoXXXoOXXoXXOXXoXXOXOoOoOoOoX",
" OOOOOOOOOOOOOOOOOOOOOOOOOOOOOOOOOOOOOOOOOOX",
" OOOoOOOoOOOoOOOoOOOoOOOoOOOoOOOoOOOoOOOoOOX",
" OOOOOOOOOOOOOOOOOOOOOOOOOOOOOOOOOOOOOOOOOOX",
" OoOOOoOOOOOOOoOOOOOOOoOOOOOOOoOOOOOOOoOOOOX",
" OOOOOOOOOOOOOOOOOOOOOOOOOOOOOOOOOOOOOOOOOOX",
" OOOOOOOOOOOOOOOOOOOOOOOOOOOOOOOOOOOOOOOOOOX",
".XXXXXXXXXXXXXXXXXXXXXXXXXXXXXXXXXXXXXXXXXXX"};
