/* XPM */
static char * icn10_xpm[] = {
/* width height ncolors chars_per_pixel */
"44 44 5 1",
/* colors */
" 	c white",
".	c #B6B6B6",
"X	c black",
"o	c #A6A2A6",
"O	c #9A9B97",
/* pixels */
"                                           .",
" ..........................................X",
" ................          ................X",
" ................         X................X",
" o...o...o...o...  ..o...XX..o...o...o...o.X",
" ................  ..XX..XX................X",
" o.o.o.o.o.o.o.o.  o.XXo.XXo.o.o.o.o.o.o.o.X",
" .........o......  .XXXX.XX.......o.......oX",
" o.o.o.o.o.o.o.o.  XXXXXXXXo.o.o.o.o.o.o.o.X",
" ...o...o...o...o  .o...oXX.o...o...o...o..X",
" o.o.o.o.o.o.o.o. XXXXXXXXXo.o.o.o.o.o.o.o.X",
" o.o.o.o.o.o.o.o.XXXXXXXXXXo.o.o.o.o.o.o.o.X",
" .o.o.o.o.o.o.o.o          .o.o.o.o.o.o.o.oX",
" o.o.o.o.o.o.o.o.         Xo.o.o.o.o.o.o.o.X",
" oo.ooo.ooo.ooo.o  .ooo.oXX.ooo.ooo.ooo.oooX",
" o.o.o.o.o.o.o.o.  o.o.o.XXo.o.o.o.o.o.o.o.X",
" oooooooooooooooo  ooooooXXooooooooooooooooX",
" o.o.o.o.o.o.o.o.  o.o.o.XXo.o.o.o.o.o.o.o.X",
" oooooooooooooooo  ooooooXXooooooooooooooooX",
" ooo.ooo.ooo.ooo.  o.ooo.XXo.ooo.ooo.ooo.ooX",
" oooooooooooooooo  ooooooXXooooooooooooooooX",
" oooooooooooooooo  ooooooXXooooooooooooooooX",
" oooooooooooooooo  ooooooXXooooooooooooooooX",
" OoooOoooOoooOooo  ooOoooXXooOoooOoooOoooOoX",
" oooooooooooooooo  ooooooXXooooooooooooooooX",
" ooOoooOoOoOoooOo  OoooOoXXOoooOoOoOoooOoOoX",
" oooooooooooooooo  ooooooXXooooooooooooooooX",
" OoOoOoOoOoOoOoOo  OoOoOoXXOoOoOoOoOoOoOoOoX",
" oooooooooooooooo  ooooooXXooooooooooooooooX",
" OoOoOoOoOoOoOoOo  OoOoOoXXOoOoOoOoOoOoOoOoX",
" oOoooOoooOoooOoo XXXXXXXXXoooOoooOoooOoooOX",
" OoOoOoOoOoOoOoOoXXXXXXXXXXOoOoOoOoOoOoOoOoX",
" oOoOoOoOoOoOoOoO          oOoOoOoOoOoOoOoOX",
" OOoOOOoOOOoOOOoO         XoOOOoOOOoOOOoOOOX",
" OoOoOoOoOoOoOoOo  OoOoOoXXOoOoOoOoOoOoOoOoX",
" OOOOOOOOOOOOOOOO  XXXXXXXXOOOOOOOOOOOOOOOOX",
" OoOoOoOoOoOoOoOo  OXXXXoXXOoOoOoOoOoOoOoOoX",
" OOOOOOOOOOOOOOOO  OOXXOOXXOOOOOOOOOOOOOOOOX",
" OOOoOOOoOOOoOOOo  OoXXOoXXOoOOOoOOOoOOOoOOX",
" OOOOOOOOOOOOOOOO  OOOOOOXXOOOOOOOOOOOOOOOOX",
" OoOOOoOOOOOOOoOO  XXXXXXXXOOOoOOOOOOOoOOOOX",
" OOOOOOOOOOOOOOOO XXXXXXXXXOOOOOOOOOOOOOOOOX",
" OOOOOOOOOOOOOOOOOOOOOOOOOOOOOOOOOOOOOOOOOOX",
".XXXXXXXXXXXXXXXXXXXXXXXXXXXXXXXXXXXXXXXXXXX"};
