/* XPM */
static char * img16_xpm[] = {
/* width height ncolors chars_per_pixel */
"44 44 5 1",
/* colors */
" 	c white",
".	c #B6B6B6",
"X	c black",
"o	c #A6A2A6",
"O	c #9A9B97",
/* pixels */
"                                           .",
" ..........................................X",
" ..........................................X",
" ..........................................X",
" o...o...o...o...o...o...o...o...o...o...o.X",
" ..........................................X",
" o.o.o.o.o.o.o.o.o.o.o.o.o.o.o.o.o.o.o.o.o.X",
" .........o.......o.......o.......o.......oX",
" o.o.o.o.o.o.o.o.o.o.o.o.o.o.o.o.o.o.o.o.o.X",
" ...o...o...o...o...o...o...o...o...o...o..X",
" o.o.o.o.o.o.o.o.o.o.o.o.o.o.o.o.o.o.o.o.o.X",
" o.o.o.o.o.o.o.o.o.o.o.o.o.o.o.o.o.o.o.o.o.X",
" .o.o.o.o.o.o.o.o.o.o.o.o.o.o.o.o.o.o.o.o.oX",
" o.o                                    .o.X",
" oo.                                   XoooX",
" o.o  .o.o.o.o.o.o.o.o.o.o.o.o.o.o.o.oXX.o.X",
" ooo  ooooooooooooooooooooooooooooooooXXoooX",
" o.o  .o.o.o.o.o.o.o.o.o.o.oXXXXXXXo.oXX.o.X",
" ooo  ooooooooooooooooooooooXXXXXXXoooXXoooX",
" ooo  oo.ooo.ooo.ooo.ooo.ooo.XXXXXoo.oXX.ooX",
" ooo  oooooooooooooooooooooooXXXXXooooXXoooX",
" ooo  ooooooooooooooooooooooooXXXoooooXXoooX",
" ooo  ooooooooooooooooooooooooXXXoooooXXoooX",
" Ooo  oooOoooOoooOoooOoooOoooOoXoOoooOXXoOoX",
" ooo  oooooooooooooooooooooooooXooooooXXoooX",
" ooO  oOoOoOoooOoOoOoooOoOoOoooOoOoOooXXoOoX",
" ooo  ooooooooooooooooooooooooooooooooXXoooX",
" OoO  XXXXXXXXXXXXXXXXXXXXXXXXXXXXXXXXXXoOoX",
" ooo XXXXXXXXXXXXXXXXXXXXXXXXXXXXXXXXXXXoooX",
" OoOoOoOoOoOoOoOoOoOoOoOoOoOoOoOoOoOoOoOoOoX",
" oOoooOoooOoooOoooOoooOoooOoooOoooOoooOoooOX",
" OoOoOoOoOoOoOoOoOoOoOoOoOoOoOoOoOoOoOoOoOoX",
" oOoOoOoOoOoOoOoOoOoOoOoOoOoOoOoOoOoOoOoOoOX",
" OOoOOOoOOOoOOOoOOOoOOOoOOOoOOOoOOOoOOOoOOOX",
" OoOoOoOoOoOoOoOoOoOoOoOoOoOoOoOoOoOoOoOoOoX",
" OOOOOOOOOOOOOOOOOOOOOOOOOOOOOOOOOOOOOOOOOOX",
" OoOoOoOoOoOoOoOoOoOoOoOoOoOoOoOoOoOoOoOoOoX",
" OOOOOOOOOOOOOOOOOOOOOOOOOOOOOOOOOOOOOOOOOOX",
" OOOoOOOoOOOoOOOoOOOoOOOoOOOoOOOoOOOoOOOoOOX",
" OOOOOOOOOOOOOOOOOOOOOOOOOOOOOOOOOOOOOOOOOOX",
" OoOOOoOOOOOOOoOOOOOOOoOOOOOOOoOOOOOOOoOOOOX",
" OOOOOOOOOOOOOOOOOOOOOOOOOOOOOOOOOOOOOOOOOOX",
" OOOOOOOOOOOOOOOOOOOOOOOOOOOOOOOOOOOOOOOOOOX",
".XXXXXXXXXXXXXXXXXXXXXXXXXXXXXXXXXXXXXXXXXXX"};
