/* XPM */
static char * img17_xpm[] = {
/* width height ncolors chars_per_pixel */
"44 44 5 1",
/* colors */
" 	c white",
".	c #B6B6B6",
"X	c black",
"o	c #A6A2A6",
"O	c #9A9B97",
/* pixels */
"                                           .",
" ..........................................X",
" ..........................................X",
" ..........................................X",
" o..XXXXXXXXXXXXXXXXXXXXXXXXXXXXXXXXXXXX.o.X",
" ...X..................................X...X",
" o.oXo.o.o.o.o.o.o.o.o.o.o.o.o.o.o.o.o.X.o.X",
" ...X.....o.......o.......o.......o....X..oX",
" o.oXo.o.oXXXo.o.o.o.o.o.oXo.o.o.o.o.o.X.o.X",
" ...X...oX..oX.XoX..X..XoXX.oX..X.X.o..Xo..X",
" o.oXo.o.X.o.X.X.X.XXX.XXoXo.oXoXoXo.o.X.o.X",
" o.oXo.o.X.o.X.X.X.X.o.X.oXo.XXoXoXo.o.X.o.X",
" .o.X.o.o.XXX.o.X.o.X.oXo.X.oXX.oXo.o.oXo.oX",
" o.oXo.o.o.o.o.o.o.o.o.o.o.o.o.o.X.o.o.X.o.X",
" oo.Xoo.ooo.ooo.ooo.ooo.ooo.ooo.Xoo.oooXoooX",
" o.oXo.o.o.o.o.o.o.o.o.o.o.o.o.o.o.o.o.X.o.X",
" oooXooooooooooooooooooooooooooooooooooXoooX",
" o.oXo.o.o.o.o.o.o.o.o.o.o.o.o.o.o.o.o.X.o.X",
" oooXooooooooooooooooooooooooooooooooooXoooX",
" oooXooo.ooo.ooo.ooo.ooo.ooo.ooo.ooo.ooX.ooX",
" oooXooooooooooooooooooooooooooooooooooXoooX",
" oooXooooooooooooooooooooooooooooooooooXoooX",
" oooXooooooooooooooooooooooooooooooooooXoooX",
" OooXOoooOoooOoooOoooOoooOoooOoooOoooOoXoOoX",
" oooXooooooooooooooooooooooooooooooooooXoooX",
" ooOXooOoOoOoooOoOoOoooOoOoOoooOoOoOoooXoOoX",
" oooXooooooooooooooooooooooooooooooooooXoooX",
" OoOXOoOoOoOoOoOoOoOoOoOoOoOoOoOoOoOoOoXoOoX",
" oooXooooooooooooooooooooooooooooooooooXoooX",
" OoOXOoOoOoOoOoOoOoOoOoOoOoOoOoOoOoOoOoXoOoX",
" oOoXoOoooOoooOoooOoooOoooOoooOoooOoooOXooOX",
" OoOXOoOoOoOoOoOoOoOoOoOoOoOoOoOoOoOoOoXoOoX",
" oOoXoOoOoOoOoOoOoOoOoOoOoOoOoOoOoOoOoOXOoOX",
" OOoXOOoOOOoOOOoOOOoOOOoOOOoOOOoOOOoOOOXOOOX",
" OoOXOoOoOoOoOoOoOoOoOoOoOoOoOoOoOoOoOoXoOoX",
" OOOXOOOOOOOOOOOOOOOOOOOOOOOOOOOOOOOOOOXOOOX",
" OoOXOoOoOoOoOoOoOoOoOoOoOoOoOoOoOoOoOoXoOoX",
" OOOXOOOOOOOOOOOOOOOOOOOOOOOOOOOOOOOOOOXOOOX",
" OOOXOOOoOOOoOOOoOOOoOOOoOOOoOOOoOOOoOOXoOOX",
" OOOXXXXXXXXXXXXXXXXXXXXXXXXXXXXXXXXXXXXOOOX",
" OoOOOoOOOOOOOoOOOOOOOoOOOOOOOoOOOOOOOoOOOOX",
" OOOOOOOOOOOOOOOOOOOOOOOOOOOOOOOOOOOOOOOOOOX",
" OOOOOOOOOOOOOOOOOOOOOOOOOOOOOOOOOOOOOOOOOOX",
".XXXXXXXXXXXXXXXXXXXXXXXXXXXXXXXXXXXXXXXXXXX"};
