/* XPM */
static char * img25_xpm[] = {
/* width height ncolors chars_per_pixel */
"44 44 5 1",
/* colors */
" 	c white",
".	c #B6B6B6",
"X	c black",
"o	c #A6A2A6",
"O	c #9A9B97",
/* pixels */
"                                           .",
" ..........................................X",
" ..........................................X",
" ..........................................X",
" o...o...o...o...o...o...o...o...o...o...o.X",
" ..........................................X",
" o.o.o.o.o.o.o.o.o.o.o.o.o.o.o.o.o.o.o.o.o.X",
" .........o.......o.......o.......o.......oX",
" o.o.o.o.o.o.o.o.o.o.o.o.o.o.o.o.o.o.o.o.o.X",
" ...o...o...o...o...o...o...o...o...o...o..X",
" o.o.o.o.o.o.o.o.o.o.o.o.o.o.o.o.o.o.o.o.o.X",
" o.o.o.o.o.o.o.o.o.o.o.o.o.X.o.o.o.o.o.o.o.X",
" .o.o.o.o.o.o.o.o.o.o.o.o.oXX.o.o.o.o.o.o.oX",
" o.o.o.o.o.o.o.o.o.o.o.o.o.XXX.o.o.o.o.o.o.X",
" oo.ooo.ooo.ooo.ooo.ooo.oooXXXX.ooo.ooo.oooX",
" o.o.o.o.o.o.o.o.o.o.o.o.o.oXXXX.o.o.o.o.o.X",
" ooooooooooooooooooooooooooooXXXXooooooooooX",
" o.o.o.o.o.o.o.o.o.o.o.o.o.o.oXXXX.o.o.o.o.X",
" ooooooooooooooooooooooooooooooXXXXooooooooX",
" ooo.oooXXXXXXXXXXXXXXXXXXXXXXXXXXXX.ooo.ooX",
" oooooooXXXXXXXXXXXXXXXXXXXXXXXXXXXXXooooooX",
" oooooooXXXXXXXXXXXXXXXXXXXXXXXXXXXXXooooooX",
" oooooooXXXXXXXXXXXXXXXXXXXXXXXXXXXXoooooooX",
" OoooOoooOoooOoooOoooOoooOoooOoXXXXooOoooOoX",
" oooooooooooooooooooooooooooooXXXXoooooooooX",
" ooOoooOoOoOoooOoOoOoooOoOoOoXXXXOoOoooOoOoX",
" oooooooooooooooooooooooooooXXXXoooooooooooX",
" OoOoOoOoOoOoOoOoOoOoOoOoOoXXXXOoOoOoOoOoOoX",
" ooooooooooooooooooooooooooXXXoooooooooooooX",
" OoOoOoOoOoOoOoOoOoOoOoOoOoXXOoOoOoOoOoOoOoX",
" oOoooOoooOoooOoooOoooOoooOXooOoooOoooOoooOX",
" OoOoOoOoOoOoOoOoOoOoOoOoOoOoOoOoOoOoOoOoOoX",
" oOoOoOoOoOoOoOoOoOoOoOoOoOoOoOoOoOoOoOoOoOX",
" OOoOOOoOOOoOOOoOOOoOOOoOOOoOOOoOOOoOOOoOOOX",
" OoOoOoOoOoOoOoOoOoOoOoOoOoOoOoOoOoOoOoOoOoX",
" OOOOOOOOOOOOOOOOOOOOOOOOOOOOOOOOOOOOOOOOOOX",
" OoOoOoOoOoOoOoOoOoOoOoOoOoOoOoOoOoOoOoOoOoX",
" OOOOOOOOOOOOOOOOOOOOOOOOOOOOOOOOOOOOOOOOOOX",
" OOOoOOOoOOOoOOOoOOOoOOOoOOOoOOOoOOOoOOOoOOX",
" OOOOOOOOOOOOOOOOOOOOOOOOOOOOOOOOOOOOOOOOOOX",
" OoOOOoOOOOOOOoOOOOOOOoOOOOOOOoOOOOOOOoOOOOX",
" OOOOOOOOOOOOOOOOOOOOOOOOOOOOOOOOOOOOOOOOOOX",
" OOOOOOOOOOOOOOOOOOOOOOOOOOOOOOOOOOOOOOOOOOX",
".XXXXXXXXXXXXXXXXXXXXXXXXXXXXXXXXXXXXXXXXXXX"};
