/* XPM */
static char * img26_xpm[] = {
/* width height ncolors chars_per_pixel */
"44 44 5 1",
/* colors */
" 	c white",
".	c #B6B6B6",
"X	c black",
"o	c #A6A2A6",
"O	c #9A9B97",
/* pixels */
"                                           .",
" ..........................................X",
" ..........................................X",
" ..........................................X",
" o...o...o...o...o...o...o...o...o...o...o.X",
" ..........................................X",
" o.o.o.o.o.o.o.o.o.o.o.o.o.o.o.o.o.o.o.o.o.X",
" .........o.......o.......o.......o.......oX",
" o.o.o.o.o.o.o.o.o.o.o.o.o.o.o.o.o.o.o.o.o.X",
" ...o...o...o...o...o...o...o...o...o...o..X",
" o.o.o.o.o.o.o.o.o.o.o.o.o.o.o.o.o.o.o.o.o.X",
" o.o.o.o.o.o.o.oXo.o.o.o.o.o.o.o.o.o.o.o.o.X",
" .o.o.o.o.o.o.oXX.o.o.o.o.o.o.o.o.o.o.o.o.oX",
" o.o.o.o.o.o.oXXXo.o.o.o.o.o.o.o.o.o.o.o.o.X",
" oo.ooo.ooo.oXXXXoo.ooo.ooo.ooo.ooo.ooo.oooX",
" o.o.o.o.o.oXXXX.o.o.o.o.o.o.o.o.o.o.o.o.o.X",
" ooooooooooXXXXooooooooooooooooooooooooooooX",
" o.o.o.o.oXXXX.o.o.o.o.o.o.o.o.o.o.o.o.o.o.X",
" ooooooooXXXXooooooooooooooooooooooooooooooX",
" ooo.oooXXXXXXXXXXXXXXXXXXXXXXXXXXXX.ooo.ooX",
" ooooooXXXXXXXXXXXXXXXXXXXXXXXXXXXXXoooooooX",
" ooooooXXXXXXXXXXXXXXXXXXXXXXXXXXXXXoooooooX",
" oooooooXXXXXXXXXXXXXXXXXXXXXXXXXXXXoooooooX",
" OoooOoooXXXXOoooOoooOoooOoooOoooOoooOoooOoX",
" oooooooooXXXXoooooooooooooooooooooooooooooX",
" ooOoooOoOoXXXXOoOoOoooOoOoOoooOoOoOoooOoOoX",
" oooooooooooXXXXoooooooooooooooooooooooooooX",
" OoOoOoOoOoOoXXXXOoOoOoOoOoOoOoOoOoOoOoOoOoX",
" oooooooooooooXXXooooooooooooooooooooooooooX",
" OoOoOoOoOoOoOoXXOoOoOoOoOoOoOoOoOoOoOoOoOoX",
" oOoooOoooOoooOoXoOoooOoooOoooOoooOoooOoooOX",
" OoOoOoOoOoOoOoOoOoOoOoOoOoOoOoOoOoOoOoOoOoX",
" oOoOoOoOoOoOoOoOoOoOoOoOoOoOoOoOoOoOoOoOoOX",
" OOoOOOoOOOoOOOoOOOoOOOoOOOoOOOoOOOoOOOoOOOX",
" OoOoOoOoOoOoOoOoOoOoOoOoOoOoOoOoOoOoOoOoOoX",
" OOOOOOOOOOOOOOOOOOOOOOOOOOOOOOOOOOOOOOOOOOX",
" OoOoOoOoOoOoOoOoOoOoOoOoOoOoOoOoOoOoOoOoOoX",
" OOOOOOOOOOOOOOOOOOOOOOOOOOOOOOOOOOOOOOOOOOX",
" OOOoOOOoOOOoOOOoOOOoOOOoOOOoOOOoOOOoOOOoOOX",
" OOOOOOOOOOOOOOOOOOOOOOOOOOOOOOOOOOOOOOOOOOX",
" OoOOOoOOOOOOOoOOOOOOOoOOOOOOOoOOOOOOOoOOOOX",
" OOOOOOOOOOOOOOOOOOOOOOOOOOOOOOOOOOOOOOOOOOX",
" OOOOOOOOOOOOOOOOOOOOOOOOOOOOOOOOOOOOOOOOOOX",
".XXXXXXXXXXXXXXXXXXXXXXXXXXXXXXXXXXXXXXXXXXX"};
